<svg xmlns="http://www.w3.org/2000/svg" viewBox="0 0 2732 2732">
  <!-- Dark-mode splash. stone-900 background, same amber mark. -->
  <defs>
    <radialGradient id="gd" cx="50%" cy="40%" r="60%">
      <stop offset="0%" stop-color="#fbbf24"/>
      <stop offset="100%" stop-color="#b45309"/>
    </radialGradient>
  </defs>
  <rect width="2732" height="2732" fill="#1c1917"/>
  <g transform="translate(1366, 1200) scale(1.1) translate(-512, -512)">
    <path fill="url(#gd)" d="M512 160c140 0 230 80 260 190 26 94-14 170-30 230-22 84-90 150-230 150s-208-66-230-150c-16-60-56-136-30-230 30-110 120-190 260-190z"/>
    <circle cx="420" cy="470" r="28" fill="#fafaf9"/>
    <circle cx="604" cy="470" r="28" fill="#fafaf9"/>
    <path d="M420 600 q92 80 184 0" stroke="#fafaf9" stroke-width="18" stroke-linecap="round" fill="none"/>
  </g>
  <text x="1366" y="1900" font-family="system-ui, -apple-system, sans-serif" font-size="120" font-weight="700" fill="#fafaf9" text-anchor="middle">Logio</text>
</svg>
